<svg width="17" height="18" viewBox="0 0 17 18" fill="none" xmlns="http://www.w3.org/2000/svg">
<path fill-rule="evenodd" clip-rule="evenodd" d="M12.6563 7.81229C12.6563 8.51404 12.5181 9.20892 12.2495 9.85725C11.981 10.5056 11.5873 11.0947 11.0911 11.5909C10.5949 12.0871 10.0058 12.4807 9.3575 12.7493C8.70916 13.0178 8.01428 13.156 7.31253 13.156C6.61078 13.156 5.9159 13.0178 5.26757 12.7493C4.61923 12.4807 4.03014 12.0871 3.53393 11.5909C3.03772 11.0947 2.6441 10.5056 2.37555 9.85725C2.107 9.20892 1.96878 8.51404 1.96878 7.81229C1.96878 6.39504 2.53178 5.03583 3.53393 4.03368C4.53608 3.03154 5.89528 2.46854 7.31253 2.46854C8.72978 2.46854 10.089 3.03154 11.0911 4.03368C12.0933 5.03583 12.6563 6.39504 12.6563 7.81229ZM11.6825 13.441C10.2509 14.5525 8.4494 15.0766 6.64492 14.9066C4.84043 14.7366 3.16856 13.8853 1.96967 12.5259C0.770777 11.1666 0.134985 9.40152 0.191728 7.58993C0.248472 5.77834 0.993485 4.05647 2.2751 2.77486C3.55671 1.49324 5.27858 0.748228 7.09017 0.691484C8.90176 0.634741 10.6669 1.27053 12.0262 2.46943C13.3855 3.66832 14.2368 5.34019 14.4068 7.14467C14.5768 8.94916 14.0528 10.7506 12.9413 12.1823L16.2544 15.4954C16.3419 15.5769 16.4121 15.6753 16.4608 15.7845C16.5094 15.8938 16.5356 16.0117 16.5377 16.1313C16.5398 16.2509 16.5178 16.3697 16.4731 16.4806C16.4283 16.5915 16.3616 16.6922 16.277 16.7768C16.1924 16.8613 16.0917 16.928 15.9808 16.9728C15.8699 17.0176 15.7511 17.0396 15.6315 17.0375C15.512 17.0354 15.394 17.0092 15.2848 16.9605C15.1755 16.9118 15.0772 16.8417 14.9957 16.7542L11.6825 13.441Z" fill="black"/>
</svg>
