<svg width="25" height="26" viewBox="0 0 25 26" fill="none" xmlns="http://www.w3.org/2000/svg">
<path d="M18.2291 12.9998C19.7485 12.9998 21.2058 13.6034 22.2802 14.6779C23.3546 15.7523 23.9582 17.2095 23.9582 18.729C23.9582 20.2485 23.3546 21.7057 22.2802 22.7801C21.2058 23.8546 19.7485 24.4582 18.2291 24.4582C16.7096 24.4582 15.2524 23.8546 14.1779 22.7801C13.1035 21.7057 12.4999 20.2485 12.4999 18.729C12.4999 17.2095 13.1035 15.7523 14.1779 14.6779C15.2524 13.6034 16.7096 12.9998 18.2291 12.9998ZM12.5239 15.0832C12.2119 15.5703 11.9637 16.0954 11.7853 16.6457H4.43011C4.22291 16.6457 4.0242 16.728 3.87768 16.8745C3.73117 17.021 3.64886 17.2197 3.64886 17.4269V18.028C3.64886 18.5853 3.84886 19.1248 4.21136 19.5488C5.51657 21.079 7.56553 21.855 10.4166 21.855C11.0388 21.855 11.6221 21.8182 12.1666 21.7446C12.4228 22.2603 12.7426 22.7384 13.1166 23.1686C12.2881 23.3353 11.3881 23.4186 10.4166 23.4186C7.14053 23.4186 4.65407 22.4748 3.02282 20.5644C2.41905 19.8572 2.08737 18.9578 2.0874 18.028V17.4259C2.08768 16.8046 2.33459 16.2089 2.77387 15.7696C3.21315 15.3304 3.80887 15.0834 4.43011 15.0832H12.5239ZM18.2291 15.0832L18.1353 15.0915C18.0313 15.1105 17.9354 15.1608 17.8606 15.2356C17.7858 15.3104 17.7356 15.4062 17.7166 15.5103L17.7082 15.604V18.2082H15.1082L15.0145 18.2165C14.9104 18.2355 14.8146 18.2858 14.7398 18.3606C14.665 18.4354 14.6147 18.5312 14.5957 18.6353L14.5874 18.729L14.5957 18.8228C14.6147 18.9268 14.665 19.0226 14.7398 19.0974C14.8146 19.1722 14.9104 19.2225 15.0145 19.2415L15.1082 19.2498H17.7082V21.854L17.7166 21.9478C17.7356 22.0518 17.7858 22.1476 17.8606 22.2224C17.9354 22.2972 18.0313 22.3475 18.1353 22.3665L18.2291 22.3748L18.3228 22.3665C18.4269 22.3475 18.5227 22.2972 18.5975 22.2224C18.6723 22.1476 18.7226 22.0518 18.7416 21.9478L18.7499 21.854V19.2498H21.3582L21.452 19.2415C21.5561 19.2225 21.6519 19.1722 21.7267 19.0974C21.8015 19.0226 21.8517 18.9268 21.8707 18.8228L21.8791 18.729L21.8707 18.6353C21.8517 18.5312 21.8015 18.4354 21.7267 18.3606C21.6519 18.2858 21.5561 18.2355 21.452 18.2165L21.3582 18.2082H18.7499V15.604L18.7416 15.5103C18.7226 15.4062 18.6723 15.3104 18.5975 15.2356C18.5227 15.1608 18.4269 15.1105 18.3228 15.0915L18.2291 15.0832ZM10.4166 2.58838C11.1005 2.58838 11.7778 2.7231 12.4097 2.98484C13.0416 3.24658 13.6158 3.63023 14.0994 4.11386C14.5831 4.5975 14.9667 5.17167 15.2284 5.80357C15.4902 6.43547 15.6249 7.11274 15.6249 7.79671C15.6249 8.48068 15.4902 9.15795 15.2284 9.78986C14.9667 10.4218 14.5831 10.9959 14.0994 11.4796C13.6158 11.9632 13.0416 12.3468 12.4097 12.6086C11.7778 12.8703 11.1005 13.005 10.4166 13.005C9.03523 13.005 7.71047 12.4563 6.73372 11.4796C5.75697 10.5028 5.20824 9.17805 5.20824 7.79671C5.20824 6.41538 5.75697 5.09062 6.73372 4.11386C7.71047 3.13711 9.03523 2.58838 10.4166 2.58838ZM10.4166 4.15088C9.93779 4.15088 9.4637 4.24518 9.02137 4.4284C8.57904 4.61162 8.17712 4.88017 7.83858 5.21872C7.50003 5.55727 7.23148 5.95918 7.04826 6.40151C6.86504 6.84385 6.77074 7.31793 6.77074 7.79671C6.77074 8.27549 6.86504 8.74958 7.04826 9.19191C7.23148 9.63425 7.50003 10.0362 7.83858 10.3747C8.17712 10.7133 8.57904 10.9818 9.02137 11.165C9.4637 11.3482 9.93779 11.4425 10.4166 11.4425C11.3835 11.4425 12.3108 11.0584 12.9946 10.3747C13.6783 9.69098 14.0624 8.76365 14.0624 7.79671C14.0624 6.82978 13.6783 5.90245 12.9946 5.21872C12.3108 4.53499 11.3835 4.15088 10.4166 4.15088Z" fill="black"/>
</svg>
