<svg width="25" height="26" viewBox="0 0 25 26" fill="none" xmlns="http://www.w3.org/2000/svg">
<path d="M21.0938 4.37441H16.4262V2.87598C16.4262 1.5834 15.375 0.532227 14.0824 0.532227H10.9664C9.67383 0.532227 8.62266 1.5834 8.62266 2.87598V4.37441H3.90625C3.04336 4.37441 2.34375 5.07402 2.34375 5.93691V23.9049C2.34375 24.7678 3.04336 25.4674 3.90625 25.4674H21.0938C21.9566 25.4674 22.6562 24.7678 22.6562 23.9049V5.93691C22.6562 5.07402 21.9567 4.37441 21.0938 4.37441ZM10.1852 2.87598C10.1852 2.44473 10.5352 2.09473 10.9664 2.09473H14.0824C14.5137 2.09473 14.8637 2.44473 14.8637 2.87598V4.37441H10.1852V2.87598ZM21.0938 23.9049H3.90627V5.93691H8.62268V7.54434C8.62268 7.54434 8.60198 8.32478 9.39927 8.32478C10.2782 8.32478 10.1852 7.54434 10.1852 7.54434V5.93691H14.8637V7.54434C14.8637 7.54434 14.8118 8.32871 15.6418 8.32871C16.4231 8.32871 16.4262 7.54434 16.4262 7.54434V5.93691H21.0938L21.0938 23.9049Z" fill="black"/>
</svg>
